{
    "asset" : {
        "generator" : "Khronos glTF Blender I/O v1.6.16",
        "version" : "2.0"
    },
    "scene" : 0,
    "scenes" : [
        {
            "name" : "Scene",
            "nodes" : [
                0
            ]
        }
    ],
    "nodes" : [
        {
            "mesh" : 0,
            "name" : "Icosphere.001",
            "translation" : [
                0,
                0,
                2
            ]
        }
    ],
    "meshes" : [
        {
            "name" : "Icosphere.002",
            "primitives" : [
                {
                    "attributes" : {
                        "POSITION" : 0,
                        "NORMAL" : 1,
                        "TEXCOORD_0" : 2
                    },
                    "indices" : 3
                }
            ]
        }
    ],
    "accessors" : [
        {
            "bufferView" : 0,
            "componentType" : 5126,
            "count" : 1176,
            "max" : [
                1,
                1,
                0.9999999403953552
            ],
            "min" : [
                -0.9999999403953552,
                -1,
                -5
            ],
            "type" : "VEC3"
        },
        {
            "bufferView" : 1,
            "componentType" : 5126,
            "count" : 1176,
            "type" : "VEC3"
        },
        {
            "bufferView" : 2,
            "componentType" : 5126,
            "count" : 1176,
            "type" : "VEC2"
        },
        {
            "bufferView" : 3,
            "componentType" : 5123,
            "count" : 1956,
            "type" : "SCALAR"
        }
    ],
    "bufferViews" : [
        {
            "buffer" : 0,
            "byteLength" : 14112,
            "byteOffset" : 0
        },
        {
            "buffer" : 0,
            "byteLength" : 14112,
            "byteOffset" : 14112
        },
        {
            "buffer" : 0,
            "byteLength" : 9408,
            "byteOffset" : 28224
        },
        {
            "buffer" : 0,
            "byteLength" : 3912,
            "byteOffset" : 37632
        }
    ],
    "buffers" : [
        {
            "byteLength" : 41544,
            "uri" : "data:application/octet-stream;base64,"
        }
    ]
}
