{
    "asset" : {
        "generator" : "Khronos glTF Blender I/O v1.6.16",
        "version" : "2.0"
    },
    "scene" : 0,
    "scenes" : [
        {
            "name" : "Scene",
            "nodes" : [
                0
            ]
        }
    ],
    "nodes" : [
        {
            "mesh" : 0,
            "name" : "Scene",
            "scale" : [
                150,
                150,
                150
            ]
        }
    ],
    "meshes" : [
        {
            "name" : "Plane.002",
            "primitives" : [
                {
                    "attributes" : {
                        "POSITION" : 0,
                        "NORMAL" : 1,
                        "TEXCOORD_0" : 2
                    },
                    "indices" : 3
                }
            ]
        }
    ],
    "accessors" : [
        {
            "bufferView" : 0,
            "componentType" : 5126,
            "count" : 5359,
            "max" : [
                1,
                0.12218143045902252,
                1
            ],
            "min" : [
                -1,
                -0.00951365940272808,
                -1
            ],
            "type" : "VEC3"
        },
        {
            "bufferView" : 1,
            "componentType" : 5126,
            "count" : 5359,
            "type" : "VEC3"
        },
        {
            "bufferView" : 2,
            "componentType" : 5126,
            "count" : 5359,
            "type" : "VEC2"
        },
        {
            "bufferView" : 3,
            "componentType" : 5123,
            "count" : 5361,
            "type" : "SCALAR"
        }
    ],
    "bufferViews" : [
        {
            "buffer" : 0,
            "byteLength" : 64308,
            "byteOffset" : 0
        },
        {
            "buffer" : 0,
            "byteLength" : 64308,
            "byteOffset" : 64308
        },
        {
            "buffer" : 0,
            "byteLength" : 42872,
            "byteOffset" : 128616
        },
        {
            "buffer" : 0,
            "byteLength" : 10722,
            "byteOffset" : 171488
        }
    ],
    "buffers" : [
        {
            "byteLength" : 182212,
            "uri" : "data:application/octet-stream;base64,"
        }
    ]
}
