{
    "asset" : {
        "generator" : "Khronos glTF Blender I/O v1.6.16",
        "version" : "2.0"
    },
    "scene" : 0,
    "scenes" : [
        {
            "name" : "Scene",
            "nodes" : [
                0
            ]
        }
    ],
    "nodes" : [
        {
            "mesh" : 0,
            "name" : "teapot"
        }
    ],
    "materials" : [
        {
            "doubleSided" : true,
            "name" : "Default",
            "pbrMetallicRoughness" : {
                "metallicFactor" : 0,
                "roughnessFactor" : 0.8999999761581421
            }
        },
        {
            "doubleSided" : true,
            "name" : "default",
            "pbrMetallicRoughness" : {
                "baseColorTexture" : {
                    "index" : 0
                },
                "metallicFactor" : 0,
                "roughnessFactor" : 0.8999999761581421
            }
        }
    ],
    "meshes" : [
        {
            "name" : "Object_0.002",
            "primitives" : [
                {
                    "attributes" : {
                        "POSITION" : 0,
                        "NORMAL" : 1,
                        "TEXCOORD_0" : 2
                    },
                    "indices" : 3,
                    "material" : 0
                },
                {
                    "attributes" : {
                        "POSITION" : 4,
                        "NORMAL" : 5,
                        "TEXCOORD_0" : 6
                    },
                    "indices" : 7,
                    "material" : 1
                }
            ]
        }
    ],
    "textures" : [
        {
            "sampler" : 0,
            "source" : 0
        }
    ],
    "images" : [
        {
            "bufferView" : 8,
            "mimeType" : "image/png",
            "name" : "default_baseColor"
        }
    ],
    "accessors" : [
        {
            "bufferView" : 0,
            "componentType" : 5126,
            "count" : 1922,
            "max" : [
                0.33564671874046326,
                0.7900649309158325,
                0.3356468379497528
            ],
            "min" : [
                -0.33564677834510803,
                0.5893849730491638,
                -0.33564677834510803
            ],
            "type" : "VEC3"
        },
        {
            "bufferView" : 1,
            "componentType" : 5126,
            "count" : 1922,
            "type" : "VEC3"
        },
        {
            "bufferView" : 2,
            "componentType" : 5126,
            "count" : 1922,
            "type" : "VEC2"
        },
        {
            "bufferView" : 3,
            "componentType" : 5123,
            "count" : 10656,
            "type" : "SCALAR"
        },
        {
            "bufferView" : 4,
            "componentType" : 5126,
            "count" : 6534,
            "max" : [
                0.8229392170906067,
                0.5987295508384705,
                0.4792831540107727
            ],
            "min" : [
                -0.7189246416091919,
                0,
                -0.4792831540107727
            ],
            "type" : "VEC3"
        },
        {
            "bufferView" : 5,
            "componentType" : 5126,
            "count" : 6534,
            "type" : "VEC3"
        },
        {
            "bufferView" : 6,
            "componentType" : 5126,
            "count" : 6534,
            "type" : "VEC2"
        },
        {
            "bufferView" : 7,
            "componentType" : 5123,
            "count" : 36456,
            "type" : "SCALAR"
        }
    ],
    "bufferViews" : [
        {
            "buffer" : 0,
            "byteLength" : 23064,
            "byteOffset" : 0
        },
        {
            "buffer" : 0,
            "byteLength" : 23064,
            "byteOffset" : 23064
        },
        {
            "buffer" : 0,
            "byteLength" : 15376,
            "byteOffset" : 46128
        },
        {
            "buffer" : 0,
            "byteLength" : 21312,
            "byteOffset" : 61504
        },
        {
            "buffer" : 0,
            "byteLength" : 78408,
            "byteOffset" : 82816
        },
        {
            "buffer" : 0,
            "byteLength" : 78408,
            "byteOffset" : 161224
        },
        {
            "buffer" : 0,
            "byteLength" : 52272,
            "byteOffset" : 239632
        },
        {
            "buffer" : 0,
            "byteLength" : 72912,
            "byteOffset" : 291904
        },
        {
            "buffer" : 0,
            "byteLength" : 188,
            "byteOffset" : 364816
        }
    ],
    "samplers" : [
        {
            "magFilter" : 9729,
            "minFilter" : 9987
        }
    ],
    "buffers" : [
        {
            "byteLength" : 365004,
            "uri" : "data:application/octet-stream;base64,"
        }
    ]
}
